<?xml version="1.0" encoding="iso-8859-1"?>
<!-- Generator: Adobe Illustrator 17.1.0, SVG Export Plug-In . SVG Version: 6.00 Build 0)  -->
<!DOCTYPE svg PUBLIC "-//W3C//DTD SVG 1.1//EN" "http://www.w3.org/Graphics/SVG/1.1/DTD/svg11.dtd">
<svg version="1.1" id="Capa_1" xmlns="http://www.w3.org/2000/svg" xmlns:xlink="http://www.w3.org/1999/xlink" x="0px" y="0px"
	 viewBox="0 0 297.167 297.167" style="enable-background:new 0 0 297.167 297.167;" xml:space="preserve">
<g>
	<path d="M289.167,281.083h-281c-4.418,0-8,3.582-8,8s3.582,8,8,8h281c4.418,0,8-3.582,8-8S293.585,281.083,289.167,281.083z"/>
	<path d="M41.034,223.563c3.261,7.703,8.104,14.807,14.379,20.926c12.295,11.991,28.37,18.595,45.266,18.595h95.977
		c34.469,0,62.179-28.482,62.179-63.492V91.083c0-4.418-3.249-8-7.667-8h-207c-4.418,0-8.333,3.582-8.333,8v29.955
		C14.833,128.305,0,148.211,0,171.583C0,196.732,17.612,217.869,41.034,223.563z M242.833,99.083v100.508
		c0,26.188-20.532,47.492-46.179,47.492h-95.977c-26.296,0-48.845-21.749-48.845-47.492V99.083H242.833z M35.833,138.431v61.16
		c0,1.768,0.259,3.523,0.408,5.268c-12.014-6.256-20.324-18.818-20.324-33.275C15.917,157.224,23.833,144.73,35.833,138.431z"/>
	<path style="fill:#FFB929;" d="M51.833,199.591c0,25.743,22.549,47.492,48.845,47.492h95.977c25.646,0,46.179-21.305,46.179-47.492
		V99.083h-191V199.591z M186.222,133.528c17.154,17.155,13.816,48.408-7.442,69.668c-11.749,11.749-26.905,18.486-41.583,18.486
		c-10.99,0-20.964-3.922-28.086-11.043c-17.155-17.156-13.816-48.409,7.442-69.669c11.749-11.748,26.905-18.485,41.583-18.485
		C169.126,122.485,179.1,126.406,186.222,133.528z"/>
	<path d="M107.166,59.083c0,4.418,3.582,8,8,8c4.418,0,8-3.582,8-8c0-2.462,0.414-3.341,1.238-5.094
		c1.166-2.477,2.762-5.868,2.762-11.907c0-6.039-1.596-9.431-2.762-11.907c-0.824-1.753-1.238-2.632-1.238-5.094
		c0-2.461,0.414-3.341,1.238-5.093c1.166-2.476,2.762-5.867,2.762-11.905c0-4.418-3.582-8-8-8c-4.418,0-8,3.582-8,8
		c0,2.461-0.414,3.341-1.238,5.093c-1.166,2.476-2.762,5.867-2.762,11.905c0,6.038,1.596,9.43,2.762,11.906
		c0.824,1.753,1.238,2.632,1.238,5.095c0,2.462-0.414,3.342-1.238,5.095C108.762,49.654,107.166,53.045,107.166,59.083z"/>
	<path d="M139.167,59.083c0,4.418,3.582,8,8,8s8-3.582,8-8c0-2.462,0.414-3.341,1.238-5.094c1.166-2.477,2.762-5.868,2.762-11.907
		c0-6.039-1.596-9.431-2.762-11.907c-0.824-1.753-1.238-2.632-1.238-5.094c0-2.461,0.414-3.341,1.238-5.093
		c1.166-2.476,2.762-5.867,2.762-11.905c0-4.418-3.582-8-8-8s-8,3.582-8,8c0,2.461-0.414,3.341-1.238,5.093
		c-1.166,2.476-2.762,5.867-2.762,11.905c0,6.038,1.596,9.43,2.762,11.906c0.824,1.753,1.238,2.632,1.238,5.095
		c0,2.462-0.414,3.342-1.238,5.095C140.762,49.654,139.167,53.045,139.167,59.083z"/>
	<path d="M171.167,59.083c0,4.418,3.582,8,8,8s8-3.582,8-8c0-2.462,0.414-3.341,1.238-5.094c1.166-2.477,2.762-5.868,2.762-11.907
		c0-6.039-1.596-9.431-2.762-11.907c-0.824-1.753-1.238-2.632-1.238-5.094c0-2.461,0.414-3.341,1.238-5.093
		c1.166-2.476,2.762-5.867,2.762-11.905c0-4.418-3.582-8-8-8s-8,3.582-8,8c0,2.461-0.414,3.341-1.238,5.093
		c-1.166,2.476-2.762,5.867-2.762,11.905c0,6.038,1.596,9.43,2.762,11.906c0.824,1.753,1.238,2.632,1.238,5.095
		c0,2.462-0.414,3.342-1.238,5.095C172.762,49.654,171.167,53.045,171.167,59.083z"/>
	<path style="fill:#A56905;" d="M127.867,152.284c-9.959,9.959-14.776,22.589-13.714,33.154
		c12.052-10.916,20.744-15.853,29.193-20.648c8.774-4.98,17.117-9.731,29.629-21.647c-4.902-3.798-10.652-4.658-14.839-4.658
		C147.825,138.485,136.508,143.643,127.867,152.284z"/>
	<path style="fill:#A56905;" d="M151.245,178.705c-8.782,4.984-17.133,9.74-29.665,21.682c5.062,4.339,11.207,5.295,15.617,5.295
		c10.311,0,21.628-5.158,30.27-13.8c10.342-10.344,15.145-23.569,13.569-34.368C168.672,168.811,159.833,173.83,151.245,178.705z"/>
	<path d="M116.553,140.97c-21.259,21.26-24.598,52.513-7.442,69.669c7.122,7.121,17.096,11.043,28.086,11.043
		c14.678,0,29.834-6.737,41.583-18.486c21.259-21.26,24.597-52.513,7.442-69.668c-7.122-7.121-17.096-11.043-28.086-11.043
		C143.458,122.485,128.302,129.222,116.553,140.97z M167.466,191.882c-8.642,8.642-19.958,13.8-30.27,13.8
		c-4.41,0-10.556-0.956-15.617-5.295c12.532-11.941,20.883-16.697,29.665-21.682c8.588-4.875,17.428-9.895,29.791-21.191
		C182.611,168.313,177.808,181.538,167.466,191.882z M143.346,164.79c-8.449,4.796-17.142,9.732-29.193,20.648
		c-1.063-10.566,3.755-23.195,13.714-33.154c8.642-8.642,19.958-13.8,30.269-13.8c4.187,0,9.937,0.86,14.839,4.658
		C160.463,155.059,152.121,159.811,143.346,164.79z"/>
</g>
<g>
</g>
<g>
</g>
<g>
</g>
<g>
</g>
<g>
</g>
<g>
</g>
<g>
</g>
<g>
</g>
<g>
</g>
<g>
</g>
<g>
</g>
<g>
</g>
<g>
</g>
<g>
</g>
<g>
</g>
</svg>
