<?xml version="1.0" encoding="iso-8859-1"?>
<!-- Generator: Adobe Illustrator 19.0.0, SVG Export Plug-In . SVG Version: 6.00 Build 0)  -->
<svg version="1.1" id="Layer_1" xmlns="http://www.w3.org/2000/svg" xmlns:xlink="http://www.w3.org/1999/xlink" x="0px" y="0px"
	 viewBox="0 0 512 512" style="enable-background:new 0 0 512 512;" xml:space="preserve">
<circle style="fill:#FF4B4E;" cx="59.106" cy="352.795" r="15.051"/>
<circle style="fill:#FFCA54;" cx="126.782" cy="179.218" r="15.051"/>
<circle style="fill:#00CDB3;" cx="331.462" cy="144.945" r="15.051"/>
<g>
	<circle style="fill:#57BAE5;" cx="456.465" cy="352.795" r="15.051"/>
	<circle style="fill:#57BAE5;" cx="187.398" cy="70.796" r="15.051"/>
</g>
<path style="fill:#FFCA54;" d="M444.642,249.833c-7.456-1.083-120.592-17.523-127.549-18.534l-57.043-115.58
	c-5.228-10.601-20.401-10.61-25.637,0l-57.043,115.58L49.82,249.833c-5.385,0.782-9.858,4.554-11.54,9.73
	c-1.681,5.175-0.278,10.855,3.618,14.654l92.295,89.965l-21.788,127.036c-1.996,11.648,10.269,20.575,20.742,15.07l114.085-59.978
	c124.12,65.254,115.751,61.618,120.735,61.618c8.811,0,15.595-7.942,14.091-16.712L360.27,364.182l92.296-89.965
	C461.031,265.964,456.353,251.534,444.642,249.833z"/>
<g>
	<path style="fill:#F99830;" d="M213.606,214.804l47.673-96.596l-1.228-2.488c-5.228-10.601-20.401-10.61-25.637,0L177.37,231.3
		l19.31-3.429C198.039,227.614,208.401,225.344,213.606,214.804z"/>
	<path style="fill:#F99830;" d="M143.198,485.749l19.403-113.127c2.282-13.328-5.829-21.914-5.855-21.94L72.69,268.747
		c-6.785-6.612-5.382-17.946,2.923-22.661l-25.794,3.747c-5.385,0.782-9.858,4.554-11.54,9.73
		c-1.681,5.175-0.278,10.855,3.618,14.654l92.295,89.965l-21.788,127.036c-1.996,11.648,10.269,20.575,20.742,15.07l14.47-7.606
		C144.073,495.424,142.371,490.565,143.198,485.749z"/>
</g>
<g>
	<path style="fill:#231F20;" d="M366.891,365.063l87.901-85.681c13.152-12.823,5.884-35.176-12.287-37.815l-55.877-8.12
		c-4.412-0.647-8.521,2.419-9.161,6.837c-0.643,4.418,2.418,8.521,6.837,9.163l55.877,8.12c4.921,0.713,6.888,6.766,3.327,10.237
		l-90.945,88.648c-1.905,1.858-2.773,4.532-2.323,7.155l21.468,125.175c0.846,4.935-4.366,8.612-8.709,6.328l-112.412-59.1
		c-2.355-1.237-5.169-1.237-7.524,0l-112.412,59.1c-4.39,2.305-9.55-1.416-8.71-6.328l21.47-125.175
		c0.45-2.622-0.42-5.296-2.324-7.155l-90.944-88.647c-3.558-3.47-1.597-9.525,3.325-10.238l125.681-18.263
		c2.633-0.382,4.909-2.036,6.087-4.421l56.207-113.888c2.2-4.457,8.564-4.458,10.764,0l56.206,113.887
		c1.178,2.385,3.453,4.039,6.088,4.421l42.394,6.16c4.404,0.641,8.52-2.418,9.161-6.837c0.643-4.417-2.418-8.521-6.837-9.162
		l-38.189-5.549L266.705,113.84c-8.127-16.472-31.635-16.469-39.759-0.001L172.62,223.915L51.142,241.567
		c-18.175,2.639-25.435,24.995-12.286,37.816l87.901,85.68L106.007,486.05c-2.389,13.913,8.507,25.94,21.828,25.94
		c7.505,0,1.284,2.189,118.989-59.691l108.655,57.123c16.193,8.496,35.28-5.218,32.162-23.372L366.891,365.063z"/>
	<path style="fill:#231F20;" d="M419.229,190.143c1.355,0.086,2.651,0.128,3.901,0.128c39.627-0.003,26.51-39.65,36.904-54.55
		c2.553-3.662,1.653-8.701-2.007-11.254c-3.662-2.552-8.701-1.655-11.255,2.006c-5.914,8.481-7.063,18.57-8.076,27.473
		c-1.746,15.342-2.41,21.087-18.438,20.063c-17.664-1.127-30.859,2.656-39.231,11.242c-6.854,7.029-7.644,14.721-7.711,15.576
		l16.117,1.275C389.435,202.101,391.107,188.357,419.229,190.143z"/>
	<path style="fill:#231F20;" d="M287.017,91.049l6.521,14.794c7.934-3.496,19.945-17.192,8.617-43.998
		c-4.135-9.789-2.125-11.131,9.25-16.618c11.11-5.361,27.902-13.461,23.47-38.55c-0.775-4.396-4.961-7.327-9.367-6.555
		c-4.396,0.777-7.33,4.97-6.554,9.367c2.205,12.48-3.177,15.678-14.575,21.176c-10.237,4.938-27.37,13.204-17.116,37.473
		C295.062,86.599,287.017,91.049,287.017,91.049z"/>
	<path style="fill:#231F20;" d="M80.261,84.748C92.575,87.544,94.836,88.401,93,98.867c-6.85,39.054,24.894,49.319,27.724,34.523
		c0.838-4.385-2.037-8.62-6.423-9.458c-0.089-0.017-8.827-2.6-5.376-22.272c4.549-25.95-14-30.162-25.084-32.679
		C71.5,66.178,65.538,64.27,64.888,51.612c-0.229-4.458-4.006-7.894-8.488-7.659c-4.458,0.229-7.888,4.029-7.658,8.488
		C50.05,77.886,68.23,82.014,80.261,84.748z"/>
	<path style="fill:#231F20;" d="M111.94,197.31c4.327,4.327,10.081,6.711,16.201,6.711c20.439,0,30.528-24.785,16.203-39.113
		c-4.328-4.327-10.082-6.711-16.203-6.711C107.873,158.197,97.481,182.853,111.94,197.31z M128.142,174.363
		c3.725,0,6.747,3.016,6.747,6.746c0,5.959-7.252,9.03-11.516,4.768C119.124,181.629,122.17,174.363,128.142,174.363z"/>
	<path style="fill:#231F20;" d="M315.273,161.589c8.953,8.952,23.447,8.955,32.402,0c8.933-8.934,8.933-23.469,0-32.402
		c-4.327-4.327-10.083-6.711-16.202-6.711C311.137,122.475,300.878,147.193,315.273,161.589z M331.473,152.131
		c-1.802,0-3.495-0.701-4.77-1.974c-4.229-4.229-1.233-11.514,4.77-11.514c1.801,0,3.494,0.701,4.768,1.974
		C340.475,144.851,337.466,152.131,331.473,152.131z"/>
	<path style="fill:#231F20;" d="M75.687,336.918c-8.956-8.951-23.446-8.953-32.402,0.001c-14.384,14.385-4.142,39.115,16.201,39.115
		C79.823,376.035,90.083,351.317,75.687,336.918z M59.486,359.868c-1.8,0-3.494-0.702-4.768-1.977
		c-4.236-4.233-1.223-11.513,4.768-11.513c1.802,0,3.496,0.701,4.769,1.975C68.491,352.585,65.473,359.868,59.486,359.868z"/>
	<path style="fill:#231F20;" d="M456.934,330.21c-20.337,0-30.595,24.717-16.202,39.113c8.958,8.958,23.446,8.955,32.403,0.001
		C487.52,354.936,477.287,330.21,456.934,330.21z M456.934,359.868c-1.801,0-3.495-0.702-4.768-1.977
		c-4.243-4.24-1.215-11.513,4.768-11.513c1.801,0,3.496,0.701,4.769,1.975C465.938,352.586,462.921,359.868,456.934,359.868z"/>
	<path style="fill:#231F20;" d="M186.882,93.243c6.12,0,11.873-2.383,16.201-6.711c4.326-4.327,6.711-10.082,6.711-16.202
		c0-6.121-2.384-11.874-6.711-16.2c-4.327-4.328-10.081-6.712-16.201-6.712c-6.122,0-11.874,2.383-16.202,6.711
		c-4.327,4.326-6.712,10.08-6.712,16.201c0,6.121,2.384,11.874,6.711,16.202C175.008,90.859,180.761,93.243,186.882,93.243z
		 M182.112,65.561c1.273-1.274,2.968-1.975,4.77-1.975c1.8,0,3.493,0.701,4.768,1.976c1.273,1.273,1.977,2.967,1.977,4.768
		c0,1.802-0.703,3.495-1.977,4.77c-1.274,1.273-2.968,1.975-4.768,1.975c-1.802,0-3.496-0.702-4.77-1.976s-1.976-2.967-1.976-4.769
		C180.137,68.529,180.838,66.835,182.112,65.561z"/>
	<circle style="fill:#231F20;" cx="64.396" cy="160.216" r="10.496"/>
	<circle style="fill:#231F20;" cx="411.37" cy="374.107" r="10.496"/>
	<circle style="fill:#231F20;" cx="73.747" cy="439.333" r="10.497"/>
	<path style="fill:#231F20;" d="M387.916,148.948c4.345,0,5.146-1.776,17.029-14.001c3.111-3.201,3.039-8.319-0.162-11.431
		c-3.199-3.112-8.318-3.039-11.431,0.162l-11.23,11.552C377.136,140.359,380.813,148.948,387.916,148.948z"/>
	<path style="fill:#231F20;" d="M148.814,136.179l14.936,6.04c4.139,1.673,8.853-0.325,10.524-4.463
		c1.674-4.139-0.325-8.851-4.463-10.524l-14.937-6.04c-4.145-1.676-8.851,0.326-10.524,4.463
		C142.675,129.794,144.674,134.506,148.814,136.179z"/>
	<path style="fill:#231F20;" d="M96.025,392.665l-14.937-6.04c-4.146-1.674-8.851,0.325-10.524,4.463
		c-1.673,4.139,0.326,8.852,4.464,10.524c16.144,6.529,15.877,6.632,17.964,6.632c3.197,0,6.227-1.908,7.497-5.055
		C102.163,399.05,100.164,394.339,96.025,392.665z"/>
	<path style="fill:#231F20;" d="M436.93,420.274l-14.936-6.04c-4.146-1.673-8.852,0.326-10.524,4.464
		c-1.674,4.139,0.325,8.852,4.463,10.524c16.134,6.524,15.88,6.632,17.965,6.632C442.715,435.855,445.129,423.589,436.93,420.274z"
		/>
</g>
<g>
</g>
<g>
</g>
<g>
</g>
<g>
</g>
<g>
</g>
<g>
</g>
<g>
</g>
<g>
</g>
<g>
</g>
<g>
</g>
<g>
</g>
<g>
</g>
<g>
</g>
<g>
</g>
<g>
</g>
</svg>
